<svg xmlns="http://www.w3.org/2000/svg" viewBox="0 0 640 640">
  <path fill="black" d="M235.5 102.8C256.3 68 300.5 54 338 71.6L345.2 75.4C380 96.3 394 140.5 376.4 178L376.4 178L362.3 208L472 208L479.4 208.4C515.7 212.1 544 242.8 544 280C544 293.2 540.4 305.4 534.2 316C540.3 326.6 543.9 338.8 544 352C544 370.3 537.1 386.8 526 399.5C527.3 404.8 528 410.3 528 416C528 441.1 515.1 463 495.8 475.9C493.9 511.4 466.4 540.1 431.4 543.6L424 544L319.9 544C301.9 544 284 540.6 267.3 534.1L260.2 531.1L259.5 530.8L252.9 527.6L252.2 527.3L240 520.8C227.7 514.3 216.7 506.1 207.1 496.7C203 523.6 179.8 544.1 151.8 544.1L119.8 544.1C88.9 544.1 63.8 519 63.8 488.1L64 264C64 233.1 89.1 208 120 208L152 208C162.8 208 172.9 211.1 181.5 216.5L231.6 110L232.2 108.8L234.9 103.8L235.5 102.9z"/>
</svg>